<?xml version="1.0" encoding="UTF-8" standalone="no"?>
<!DOCTYPE svg PUBLIC "-//W3C//DTD SVG 1.1//EN" "http://www.w3.org/Graphics/SVG/1.1/DTD/svg11.dtd">
<svg xmlns="http://www.w3.org/2000/svg" version="1.1" viewBox="0.00 0.00 1538.00 1363.00">
<path fill="#ffffff" d="
  M 815.66 448.88
  Q 810.55 450.02 815.78 450.41
  Q 854.10 453.24 891.34 460.82
  C 927.35 468.15 963.10 481.21 992.30 502.84
  C 1030.20 530.91 1053.09 572.28 1061.76 618.40
  Q 1070.82 666.64 1065.22 717.38
  C 1062.14 745.40 1054.62 772.69 1041.36 797.05
  Q 1020.11 836.14 983.04 860.51
  Q 966.39 871.46 947.86 879.43
  C 906.47 897.25 861.85 905.06 815.24 908.53
  Q 779.85 911.16 753.86 911.09
  C 753.22 911.09 752.69 911.32 752.00 911.32
  Q 707.62 911.38 663.25 911.70
  Q 662.36 911.71 661.50 911.71
  Q 611.52 911.76 561.72 911.76
  A 1.23 1.22 89.5 0 1 560.50 910.55
  C 560.49 909.15 560.38 907.77 560.66 906.39
  C 566.30 878.73 568.10 848.54 563.95 820.49
  Q 562.20 808.64 559.50 794.00
  C 558.00 785.83 557.52 777.21 556.19 768.93
  Q 551.18 737.71 542.84 705.24
  C 540.83 697.40 536.58 690.25 531.79 683.65
  C 522.82 671.26 514.79 657.30 505.69 644.06
  C 499.90 635.62 491.83 629.14 486.55 620.44
  C 476.62 604.05 466.30 589.03 456.53 574.29
  Q 451.67 566.96 447.88 557.41
  Q 438.80 534.51 431.92 509.11
  Q 428.26 495.61 426.50 483.20
  Q 425.19 473.92 425.56 462.30
  C 425.93 451.02 426.04 439.79 426.22 428.79
  Q 426.35 420.88 427.00 412.75
  Q 427.62 404.93 427.72 396.60
  C 427.76 393.71 428.23 390.52 429.99 388.22
  C 432.12 385.43 434.88 387.25 436.03 389.74
  Q 438.88 395.89 441.69 400.71
  Q 449.35 413.90 458.06 428.99
  C 464.59 440.30 471.99 451.01 479.83 459.17
  Q 485.89 465.48 491.92 471.57
  Q 495.58 475.26 498.45 480.01
  C 507.78 495.43 516.21 511.58 521.71 528.46
  Q 524.51 537.06 526.92 548.19
  Q 533.33 577.78 535.86 601.55
  Q 538.15 623.14 540.32 644.78
  Q 541.40 655.54 541.59 665.30
  Q 541.68 670.03 542.73 673.88
  Q 543.58 677.00 544.27 680.21
  Q 545.22 684.62 547.03 689.99
  Q 551.20 702.35 554.20 717.27
  Q 561.75 754.76 563.43 767.31
  Q 566.34 789.03 570.44 812.42
  Q 570.68 813.78 571.52 814.25
  C 572.59 814.85 573.94 814.42 574.40 813.25
  C 575.53 810.36 575.51 806.81 575.87 803.75
  Q 576.23 800.72 576.95 797.30
  Q 581.71 774.72 584.60 749.25
  Q 590.88 693.83 591.38 636.50
  C 591.39 635.62 591.69 634.77 591.70 633.90
  Q 591.76 620.93 591.67 606.83
  Q 591.63 601.16 589.70 594.27
  Q 583.04 570.45 575.26 546.12
  Q 570.89 532.47 566.52 522.20
  Q 562.44 512.57 558.98 503.36
  C 555.34 493.62 551.45 483.45 545.28 474.94
  Q 534.06 459.48 524.81 443.13
  Q 509.14 415.42 491.73 375.07
  C 490.88 373.11 489.88 371.18 488.87 369.32
  Q 483.35 359.19 474.10 343.71
  C 468.50 334.33 467.40 322.67 462.05 312.99
  A 2.02 2.01 59.0 0 0 459.18 312.27
  C 454.52 315.29 449.28 318.01 444.01 314.25
  C 432.97 306.37 417.41 287.91 429.56 274.22
  Q 436.83 266.03 447.82 264.86
  Q 453.37 264.27 457.73 267.97
  C 467.45 276.24 468.59 292.27 465.58 303.84
  Q 465.35 304.72 465.66 305.61
  Q 468.59 314.12 471.80 322.66
  C 475.66 332.96 479.94 341.74 486.14 350.77
  C 490.18 356.65 493.91 362.50 496.75 368.90
  Q 505.88 389.45 515.82 409.84
  C 525.52 429.75 535.89 448.26 548.31 464.99
  Q 556.53 476.06 562.72 492.45
  Q 569.33 509.96 578.14 531.06
  C 581.66 539.51 582.92 547.84 584.79 556.58
  Q 585.24 558.69 587.15 559.56
  Q 587.54 559.74 587.99 559.55
  Q 589.15 559.06 589.12 557.80
  Q 588.79 538.22 586.34 515.88
  Q 581.37 470.61 576.03 426.87
  Q 575.48 422.36 574.50 418.19
  C 573.59 414.33 572.48 410.73 571.97 406.72
  Q 570.55 395.39 567.98 382.30
  Q 563.92 361.63 559.66 341.29
  Q 552.93 309.10 539.69 277.35
  Q 539.05 275.83 534.91 271.32
  Q 533.41 269.70 531.30 265.85
  C 525.49 255.24 524.07 242.09 513.94 234.14
  Q 510.90 231.76 509.76 230.38
  Q 491.59 208.36 465.40 181.09
  Q 458.92 174.34 455.52 168.49
  Q 452.08 162.57 448.59 154.30
  Q 441.48 137.43 436.68 124.24
  Q 428.90 102.87 425.53 77.13
  Q 421.21 44.13 421.92 12.78
  Q 422.04 7.81 424.22 3.38
  Q 424.42 2.98 424.87 2.91
  C 428.02 2.48 431.26 5.28 433.28 7.51
  Q 445.47 20.94 458.29 34.29
  Q 471.62 48.18 487.37 59.84
  Q 491.43 62.84 495.19 67.55
  Q 520.58 99.36 523.81 139.03
  Q 525.31 157.39 525.90 180.01
  Q 526.52 203.99 526.75 226.25
  C 526.77 228.46 526.90 230.74 527.47 232.89
  C 530.45 244.13 533.70 256.24 539.34 266.56
  C 546.40 279.50 552.23 292.80 556.24 307.33
  Q 558.76 316.44 561.43 325.41
  Q 566.21 341.44 569.83 358.41
  Q 577.80 395.81 583.21 425.61
  Q 585.49 438.14 586.32 452.16
  C 586.48 454.86 588.00 456.77 588.42 459.32
  Q 589.34 464.87 590.41 470.54
  A 1.07 1.07 0.0 0 0 592.17 471.14
  Q 593.19 470.23 593.38 468.81
  C 595.92 450.07 599.03 431.65 600.30 412.49
  Q 600.95 402.71 601.19 392.56
  Q 601.74 369.21 602.38 346.12
  C 602.42 344.94 602.21 343.81 602.50 342.61
  Q 602.69 341.76 602.70 340.85
  Q 602.82 330.22 603.15 322.00
  Q 603.57 311.47 603.76 300.92
  Q 603.84 296.47 604.14 292.07
  Q 604.48 287.05 604.02 283.07
  C 603.28 276.63 597.45 268.93 593.22 263.79
  C 582.69 251.00 573.90 236.98 566.90 221.81
  C 558.39 203.38 554.77 184.41 555.98 164.44
  Q 557.94 132.31 566.50 102.73
  Q 571.74 84.63 577.71 67.71
  Q 580.06 61.06 583.88 54.47
  C 585.39 51.86 588.54 51.78 589.82 54.60
  Q 593.90 63.64 597.98 72.45
  A 1.81 1.78 -12.4 0 0 599.63 73.49
  Q 632.04 73.40 672.50 73.76
  Q 673.49 73.77 674.49 73.78
  Q 731.91 73.86 787.12 83.41
  Q 819.80 89.06 851.24 99.59
  C 884.70 110.79 916.79 127.75 941.76 152.19
  Q 943.76 154.16 945.69 156.26
  C 965.43 177.78 978.32 202.79 983.35 231.16
  Q 985.74 244.64 986.52 261.23
  Q 987.01 271.84 986.02 281.82
  Q 978.42 357.96 916.98 404.81
  C 890.46 425.03 857.86 439.05 825.23 446.69
  Q 820.35 447.83 815.66 448.88
  Z
  M 692.39 338.61
  C 697.36 339.43 698.50 343.28 698.37 347.70
  Q 697.74 369.61 700.27 394.50
  C 701.17 403.28 704.66 417.51 706.22 429.16
  Q 707.01 435.04 707.66 440.63
  A 2.09 2.08 3.2 0 0 709.27 442.42
  Q 751.12 451.99 791.98 438.78
  C 856.37 417.96 886.80 357.72 893.01 294.38
  Q 895.96 264.33 891.87 233.55
  Q 882.14 160.22 820.03 120.18
  Q 799.03 106.64 773.68 98.04
  Q 732.87 84.19 687.48 82.25
  C 685.68 82.18 684.14 81.88 682.42 81.88
  Q 642.73 81.89 603.58 81.86
  A 0.60 0.59 76.9 0 0 603.05 82.72
  Q 637.42 151.55 625.31 225.26
  C 623.36 237.14 620.21 249.43 617.30 261.51
  Q 615.93 267.15 611.60 274.31
  C 609.74 277.36 610.13 281.59 610.37 284.96
  C 610.83 291.51 610.69 297.80 610.98 304.53
  Q 611.31 311.85 610.53 320.36
  Q 609.97 326.48 609.46 332.66
  Q 608.92 339.15 608.27 346.24
  Q 607.89 350.40 607.76 354.01
  A 0.42 0.42 0.0 0 0 608.45 354.35
  Q 608.89 353.96 609.20 353.45
  C 611.72 349.20 612.76 344.43 615.12 340.10
  C 616.72 337.15 617.36 333.84 618.98 330.80
  Q 627.70 314.38 636.88 297.11
  C 638.20 294.62 638.88 291.77 637.99 289.02
  Q 636.02 282.94 637.51 277.94
  C 641.38 264.95 650.07 250.17 664.63 248.56
  C 671.95 247.76 678.18 250.77 679.90 258.21
  Q 683.02 271.75 673.40 281.98
  C 669.46 286.17 661.58 291.91 655.51 291.79
  C 652.58 291.73 648.66 291.79 646.68 294.23
  Q 633.91 309.97 626.45 329.12
  Q 617.28 352.67 607.74 378.65
  C 607.02 380.61 606.40 383.40 606.29 385.25
  C 605.36 401.19 604.55 417.24 602.49 433.42
  Q 598.38 465.70 595.30 496.01
  Q 594.02 508.67 594.53 513.28
  Q 597.78 542.51 599.35 571.00
  Q 599.99 582.51 600.06 594.07
  C 600.07 595.75 600.48 597.43 600.46 599.14
  Q 600.36 609.82 600.65 620.14
  Q 601.25 641.97 599.96 662.99
  Q 598.88 680.59 597.55 701.09
  Q 597.11 707.74 596.87 714.95
  Q 596.62 722.17 595.63 728.92
  C 595.01 733.20 594.97 737.48 596.05 741.72
  Q 596.31 742.76 597.13 742.08
  Q 597.26 741.97 597.52 741.26
  Q 600.26 733.83 601.18 726.06
  C 601.55 722.96 602.25 719.76 603.19 716.82
  C 609.30 697.52 612.86 679.65 616.64 658.52
  Q 619.43 642.89 625.43 628.24
  C 627.63 622.85 626.02 617.48 626.21 612.15
  Q 626.42 606.49 626.06 601.19
  Q 625.81 597.54 625.85 593.71
  C 625.89 588.44 625.32 583.36 625.53 578.12
  C 625.59 576.60 624.44 575.78 624.51 574.10
  C 624.70 569.64 625.31 565.23 625.23 560.96
  Q 625.05 551.20 625.23 541.77
  C 625.30 538.16 626.48 535.02 626.06 531.27
  Q 625.26 524.16 625.54 518.39
  Q 626.14 505.96 626.29 493.17
  Q 626.41 482.34 627.29 473.34
  Q 628.59 459.97 631.09 446.77
  C 634.31 429.78 641.68 413.60 650.35 397.93
  Q 659.13 382.06 667.15 367.58
  Q 674.67 354.01 685.18 343.54
  Q 687.73 341.00 691.34 338.81
  Q 691.83 338.51 692.39 338.61
  Z
  M 969.29 749.45
  C 972.07 733.66 974.12 716.80 974.70 701.82
  Q 975.34 685.22 974.96 668.37
  Q 974.44 645.69 970.31 616.41
  C 964.53 575.46 949.51 534.56 919.08 505.28
  Q 896.76 483.80 865.87 472.09
  C 857.19 468.80 847.76 465.55 838.73 463.70
  Q 805.34 456.85 769.00 455.75
  C 767.71 455.71 766.36 455.46 765.25 455.46
  Q 752.87 455.49 741.25 455.45
  Q 725.29 455.39 709.15 451.89
  A 0.47 0.47 0.0 0 0 708.58 452.36
  Q 708.77 458.54 709.10 464.38
  Q 709.27 467.34 709.04 470.09
  C 708.64 474.84 708.74 479.52 708.24 484.29
  Q 704.74 517.48 689.24 545.55
  C 679.97 562.35 669.40 577.68 655.72 591.22
  C 645.64 601.19 636.87 610.11 634.07 624.79
  Q 632.92 630.86 630.84 635.90
  Q 626.58 646.26 624.90 654.46
  Q 614.39 705.61 596.77 757.47
  Q 591.73 772.30 589.22 785.60
  Q 581.93 824.27 576.44 866.95
  C 574.84 879.34 575.19 889.91 577.38 901.72
  A 0.70 0.69 -4.9 0 0 578.07 902.29
  Q 668.28 902.32 757.96 902.26
  Q 762.45 902.25 767.15 902.00
  Q 771.59 901.77 776.00 901.57
  Q 804.01 900.29 830.49 894.93
  Q 852.47 890.48 872.15 882.15
  Q 923.26 860.51 949.04 810.48
  Q 963.45 782.53 969.29 749.45
  Z"
/>
<path fill="#ffffff" d="
  M 677.54 1058.25
  A 0.79 0.78 80.5 0 0 677.00 1059.01
  L 677.64 1180.16
  Q 677.65 1180.72 677.09 1180.72
  L 657.30 1180.72
  Q 656.62 1180.72 656.62 1180.04
  L 656.62 1033.01
  Q 656.62 1032.40 657.24 1032.40
  L 682.92 1032.47
  A 0.90 0.87 -16.4 0 1 683.66 1032.86
  L 764.34 1153.61
  A 0.84 0.83 -33.8 0 0 765.50 1153.83
  Q 765.86 1153.58 765.86 1153.14
  Q 765.74 1096.32 765.46 1033.04
  Q 765.46 1032.44 766.05 1032.45
  L 786.01 1032.48
  A 0.53 0.53 0.0 0 1 786.54 1033.01
  L 786.50 1180.23
  Q 786.50 1180.72 786.02 1180.72
  L 760.26 1180.83
  A 1.05 1.04 73.2 0 1 759.39 1180.36
  Q 718.67 1118.95 678.66 1058.64
  Q 678.25 1058.03 677.54 1058.25
  Z"
/>
<path fill="#ffffff" d="
  M 183.44 1104.48
  Q 183.47 1104.66 183.56 1104.76
  Q 183.68 1104.91 183.87 1104.94
  C 205.03 1108.49 219.43 1125.50 214.67 1147.20
  C 210.48 1166.27 193.91 1176.50 175.41 1179.75
  Q 168.54 1180.96 155.53 1180.88
  Q 119.62 1180.67 85.06 1180.86
  A 0.25 0.24 -0.0 0 1 84.81 1180.62
  L 84.81 1032.74
  Q 84.81 1032.50 85.05 1032.50
  Q 124.11 1032.40 163.20 1032.53
  C 182.94 1032.60 209.29 1041.26 212.91 1063.26
  Q 214.46 1072.70 210.88 1081.95
  Q 203.95 1099.82 183.80 1103.94
  Q 183.35 1104.03 183.44 1104.48
  Z
  M 105.69 1048.93
  L 105.85 1097.09
  A 0.55 0.55 0.0 0 0 106.41 1097.64
  L 160.82 1097.45
  A 31.64 23.50 -0.2 0 0 192.37 1073.84
  L 192.37 1071.58
  A 31.64 23.50 -0.2 0 0 160.64 1048.19
  L 106.23 1048.38
  A 0.55 0.55 0.0 0 0 105.69 1048.93
  Z
  M 161.25 1164.93
  C 169.15 1164.90 177.73 1162.35 183.64 1158.09
  C 195.30 1149.66 198.39 1133.32 189.15 1122.40
  C 183.46 1115.67 173.06 1112.30 164.65 1112.23
  Q 134.55 1112.00 105.98 1112.17
  A 0.19 0.19 0.0 0 0 105.79 1112.36
  L 105.79 1164.72
  A 0.24 0.24 0.0 0 0 106.03 1164.96
  Q 133.67 1165.05 161.25 1164.93
  Z"
/>
<path fill="#ffffff" d="
  M 371.46 1110.27
  Q 371.89 1110.67 372.47 1110.77
  C 389.33 1113.58 402.97 1125.32 403.08 1142.97
  Q 403.18 1159.98 403.11 1180.22
  Q 403.11 1180.80 402.53 1180.80
  L 382.88 1180.81
  Q 382.25 1180.81 382.24 1180.19
  Q 382.00 1161.54 381.63 1145.02
  C 381.21 1126.50 362.86 1118.69 346.13 1118.59
  Q 320.70 1118.44 293.87 1118.53
  Q 293.38 1118.53 293.38 1119.02
  L 293.38 1180.22
  Q 293.38 1180.82 292.78 1180.81
  L 272.96 1180.80
  Q 272.36 1180.80 272.36 1180.21
  L 272.38 1033.06
  Q 272.38 1032.51 272.93 1032.51
  Q 311.61 1032.39 351.73 1032.55
  Q 358.87 1032.58 367.72 1034.57
  C 385.37 1038.54 401.35 1049.66 401.60 1069.33
  C 401.82 1087.56 390.99 1106.63 371.67 1109.62
  A 0.38 0.38 0.0 0 0 371.46 1110.27
  Z
  M 293.29 1048.91
  L 293.47 1102.23
  A 0.52 0.52 0.0 0 0 294.00 1102.75
  L 348.00 1102.56
  A 32.61 25.89 -0.2 0 0 380.52 1076.56
  L 380.52 1073.98
  A 32.61 25.89 -0.2 0 0 347.82 1048.20
  L 293.81 1048.39
  A 0.52 0.52 0.0 0 0 293.29 1048.91
  Z"
/>
<path fill="#ffffff" d="
  M 589.25 1147.26
  C 576.83 1177.12 542.58 1185.89 513.15 1181.25
  C 488.43 1177.36 467.94 1161.55 463.35 1136.18
  Q 462.17 1129.67 462.19 1119.89
  Q 462.31 1076.03 462.23 1033.03
  Q 462.23 1032.47 462.79 1032.47
  L 482.49 1032.48
  Q 483.05 1032.48 483.05 1033.04
  Q 483.05 1076.57 483.04 1119.82
  C 483.04 1139.89 491.97 1156.59 511.36 1163.19
  Q 524.03 1167.50 538.11 1164.81
  C 560.68 1160.50 572.62 1142.84 572.62 1120.58
  Q 572.63 1075.12 572.62 1032.88
  Q 572.62 1032.47 573.03 1032.47
  L 592.96 1032.49
  Q 593.65 1032.49 593.65 1033.19
  Q 593.66 1080.65 593.61 1125.17
  Q 593.60 1136.82 589.25 1147.26
  Z"
/>
<path fill="#ffffff" d="
  M 874.12 1049.26
  L 874.12 1096.54
  A 0.30 0.30 0.0 0 0 874.42 1096.84
  L 958.45 1096.84
  A 0.30 0.30 0.0 0 1 958.75 1097.14
  L 958.76 1112.49
  A 0.30 0.30 0.0 0 1 958.46 1112.79
  L 874.42 1112.79
  A 0.30 0.30 0.0 0 0 874.12 1113.09
  L 874.13 1164.05
  A 0.30 0.30 0.0 0 0 874.43 1164.35
  L 962.72 1164.35
  A 0.30 0.30 0.0 0 1 963.02 1164.65
  L 963.02 1180.50
  A 0.30 0.30 0.0 0 1 962.72 1180.80
  L 853.41 1180.81
  A 0.30 0.30 0.0 0 1 853.11 1180.51
  L 853.11 1032.78
  A 0.30 0.30 0.0 0 1 853.41 1032.48
  L 962.72 1032.48
  A 0.30 0.30 0.0 0 1 963.02 1032.78
  L 963.02 1048.67
  A 0.30 0.30 0.0 0 1 962.72 1048.97
  L 874.42 1048.96
  A 0.30 0.30 0.0 0 0 874.12 1049.26
  Z"
/>
<path fill="#ffffff" d="
  M 1083.25 1049.30
  L 1083.26 1180.47
  A 0.34 0.34 0.0 0 1 1082.92 1180.81
  L 1062.83 1180.81
  A 0.34 0.34 0.0 0 1 1062.49 1180.47
  L 1062.49 1049.30
  A 0.34 0.34 0.0 0 0 1062.15 1048.96
  L 1003.59 1048.96
  A 0.34 0.34 0.0 0 1 1003.25 1048.62
  L 1003.25 1032.81
  A 0.34 0.34 0.0 0 1 1003.59 1032.47
  L 1142.16 1032.47
  A 0.34 0.34 0.0 0 1 1142.50 1032.81
  L 1142.51 1048.63
  A 0.34 0.34 0.0 0 1 1142.17 1048.97
  L 1083.59 1048.96
  A 0.34 0.34 0.0 0 0 1083.25 1049.30
  Z"
/>
<path fill="#ffffff" d="
  M 1232.41 1048.96
  L 1173.78 1048.96
  A 0.32 0.32 0.0 0 1 1173.46 1048.64
  L 1173.49 1032.79
  A 0.32 0.32 0.0 0 1 1173.81 1032.47
  L 1312.40 1032.48
  A 0.32 0.32 0.0 0 1 1312.72 1032.80
  L 1312.71 1048.65
  A 0.32 0.32 0.0 0 1 1312.39 1048.97
  L 1253.82 1048.96
  A 0.32 0.32 0.0 0 0 1253.50 1049.28
  L 1253.50 1180.50
  A 0.32 0.32 0.0 0 1 1253.18 1180.82
  L 1233.05 1180.79
  A 0.32 0.32 0.0 0 1 1232.73 1180.47
  L 1232.73 1049.28
  A 0.32 0.32 0.0 0 0 1232.41 1048.96
  Z"
/>
<path fill="#ffffff" d="
  M 1382.50 1113.10
  L 1382.50 1164.02
  A 0.31 0.31 0.0 0 0 1382.81 1164.33
  L 1470.98 1164.34
  A 0.31 0.31 0.0 0 1 1471.29 1164.65
  L 1471.31 1180.49
  A 0.31 0.31 0.0 0 1 1471.00 1180.80
  L 1361.69 1180.80
  A 0.31 0.31 0.0 0 1 1361.38 1180.49
  L 1361.40 1032.79
  A 0.31 0.31 0.0 0 1 1361.71 1032.48
  L 1470.98 1032.48
  A 0.31 0.31 0.0 0 1 1471.29 1032.79
  L 1471.31 1048.66
  A 0.31 0.31 0.0 0 1 1471.00 1048.97
  L 1382.81 1048.96
  A 0.31 0.31 0.0 0 0 1382.50 1049.27
  L 1382.50 1096.53
  A 0.31 0.31 0.0 0 0 1382.81 1096.84
  L 1466.84 1096.84
  A 0.31 0.31 0.0 0 1 1467.15 1097.15
  L 1467.15 1112.49
  A 0.31 0.31 0.0 0 1 1466.84 1112.80
  L 1382.81 1112.79
  A 0.31 0.31 0.0 0 0 1382.50 1113.10
  Z"
/>
<path fill="#ffffff" d="
  M 321.20 1291.74
  C 329.42 1297.15 341.93 1296.46 348.97 1289.25
  A 0.54 0.54 0.0 0 1 349.74 1289.24
  L 352.62 1292.11
  A 0.56 0.56 0.0 0 1 352.61 1292.90
  C 344.50 1300.82 331.40 1302.42 321.28 1297.81
  C 301.30 1288.72 300.33 1260.45 319.37 1249.81
  C 329.65 1244.07 344.16 1245.23 352.67 1253.72
  A 0.48 0.48 0.0 0 1 352.67 1254.40
  L 349.68 1257.42
  A 0.41 0.40 44.5 0 1 349.11 1257.42
  C 340.88 1249.45 327.55 1249.57 319.03 1256.47
  C 314.16 1260.42 311.35 1266.54 311.30 1272.81
  Q 311.22 1285.17 321.20 1291.74
  Z"
/>
<path fill="#ffffff" d="
  M 812.82 1269.72
  Q 811.03 1267.90 809.50 1265.85
  C 805.01 1259.82 805.60 1251.42 812.76 1247.93
  C 816.94 1245.89 823.21 1245.80 827.24 1248.03
  Q 833.51 1251.50 832.17 1259.17
  C 831.26 1264.39 825.38 1268.22 821.15 1270.62
  Q 820.59 1270.94 821.04 1271.40
  L 834.64 1285.40
  Q 835.18 1285.96 835.51 1285.27
  Q 837.66 1280.87 838.67 1275.86
  A 0.13 0.12 15.1 0 1 838.83 1275.77
  L 842.79 1276.99
  Q 843.07 1277.08 843.02 1277.37
  Q 841.85 1283.56 838.70 1288.82
  Q 838.42 1289.29 838.80 1289.68
  L 845.83 1296.97
  Q 845.98 1297.12 845.84 1297.29
  L 843.00 1300.54
  Q 842.87 1300.69 842.72 1300.55
  L 835.95 1293.52
  Q 835.52 1293.08 835.08 1293.52
  C 827.72 1300.93 814.79 1302.45 806.13 1297.34
  C 801.60 1294.66 799.25 1289.76 800.15 1284.50
  C 801.26 1278.08 807.22 1273.68 812.68 1270.67
  Q 813.38 1270.29 812.82 1269.72
  Z
  M 822.07 1250.62
  C 817.83 1249.95 812.85 1251.26 811.88 1255.88
  C 810.89 1260.55 814.02 1264.40 817.32 1267.46
  Q 817.69 1267.80 818.13 1267.55
  Q 821.91 1265.41 824.93 1262.78
  C 829.43 1258.86 828.62 1251.66 822.07 1250.62
  Z
  M 811.79 1294.77
  C 818.62 1297.18 826.89 1295.43 831.91 1290.24
  Q 832.32 1289.82 831.91 1289.40
  L 816.71 1273.78
  Q 816.34 1273.40 815.87 1273.66
  Q 812.37 1275.66 809.42 1278.11
  C 803.38 1283.13 803.84 1291.95 811.79 1294.77
  Z"
/>
<path fill="#ffffff" d="
  M 1507.91 1250.78
  A 0.36 0.35 -64.3 0 1 1508.06 1251.23
  L 1506.26 1255.41
  Q 1506.20 1255.56 1506.06 1255.47
  Q 1498.10 1250.23 1487.90 1251.37
  C 1476.13 1252.67 1473.23 1265.89 1485.82 1269.26
  Q 1492.72 1271.11 1499.44 1273.03
  C 1506.30 1274.99 1511.17 1279.72 1510.20 1287.53
  C 1508.11 1304.44 1480.25 1302.36 1471.26 1293.85
  Q 1470.81 1293.43 1471.09 1292.88
  L 1472.71 1289.71
  Q 1472.98 1289.17 1473.46 1289.55
  Q 1482.86 1297.03 1495.79 1295.06
  Q 1499.26 1294.53 1502.01 1292.21
  C 1505.59 1289.19 1505.82 1283.41 1502.10 1280.40
  Q 1499.79 1278.54 1497.07 1277.77
  Q 1490.44 1275.91 1484.06 1274.16
  C 1475.36 1271.78 1469.49 1265.40 1473.17 1255.78
  Q 1475.48 1249.74 1482.79 1247.59
  Q 1495.55 1243.84 1507.91 1250.78
  Z"
/>
<path fill="#ffffff" d="
  M 48.62 1278.24
  L 79.12 1246.85
  A 0.33 0.33 0.0 0 1 79.36 1246.75
  L 84.99 1246.72
  A 0.33 0.33 0.0 0 1 85.23 1247.28
  L 62.91 1270.61
  A 0.33 0.33 0.0 0 0 62.89 1271.05
  L 86.84 1299.35
  A 0.33 0.33 0.0 0 1 86.59 1299.89
  L 80.72 1299.88
  A 0.33 0.33 0.0 0 1 80.47 1299.77
  L 59.12 1275.21
  A 0.33 0.33 0.0 0 0 58.64 1275.19
  L 48.17 1285.76
  A 0.33 0.33 0.0 0 0 48.07 1286.00
  L 48.04 1299.56
  A 0.33 0.33 0.0 0 1 47.71 1299.89
  L 42.77 1299.88
  A 0.33 0.33 0.0 0 1 42.44 1299.55
  L 42.45 1247.09
  A 0.33 0.33 0.0 0 1 42.78 1246.76
  L 47.73 1246.76
  A 0.33 0.33 0.0 0 1 48.06 1247.09
  L 48.05 1278.01
  A 0.33 0.33 0.0 0 0 48.62 1278.24
  Z"
/>
<rect fill="#ffffff" x="145.51" y="1246.76" width="5.64" height="53.12" rx="0.32"/>
<path fill="#ffffff" d="
  M 233.56 1251.94
  L 233.56 1299.58
  A 0.31 0.31 0.0 0 1 233.25 1299.89
  L 228.30 1299.88
  A 0.31 0.31 0.0 0 1 227.99 1299.57
  L 227.99 1251.94
  A 0.31 0.31 0.0 0 0 227.68 1251.63
  L 209.67 1251.63
  A 0.31 0.31 0.0 0 1 209.36 1251.32
  L 209.35 1247.07
  A 0.31 0.31 0.0 0 1 209.66 1246.76
  L 251.93 1246.76
  A 0.31 0.31 0.0 0 1 252.24 1247.07
  L 252.26 1251.32
  A 0.31 0.31 0.0 0 1 251.95 1251.63
  L 233.87 1251.63
  A 0.31 0.31 0.0 0 0 233.56 1251.94
  Z"
/>
<path fill="#ffffff" d="
  M 420.10 1270.49
  L 452.65 1270.49
  A 0.33 0.33 0.0 0 0 452.98 1270.16
  L 452.98 1247.08
  A 0.33 0.33 0.0 0 1 453.31 1246.75
  L 458.18 1246.76
  A 0.33 0.33 0.0 0 1 458.51 1247.09
  L 458.51 1299.56
  A 0.33 0.33 0.0 0 1 458.18 1299.89
  L 453.31 1299.88
  A 0.33 0.33 0.0 0 1 452.98 1299.55
  L 452.98 1275.62
  A 0.33 0.33 0.0 0 0 452.65 1275.29
  L 420.10 1275.29
  A 0.33 0.33 0.0 0 0 419.77 1275.62
  L 419.77 1299.56
  A 0.33 0.33 0.0 0 1 419.44 1299.89
  L 414.56 1299.88
  A 0.33 0.33 0.0 0 1 414.23 1299.55
  L 414.23 1247.08
  A 0.33 0.33 0.0 0 1 414.56 1246.75
  L 419.44 1246.76
  A 0.33 0.33 0.0 0 1 419.77 1247.09
  L 419.77 1270.16
  A 0.33 0.33 0.0 0 0 420.10 1270.49
  Z"
/>
<path fill="#ffffff" d="
  M 530.96 1270.49
  L 557.70 1270.49
  A 0.33 0.33 0.0 0 1 558.03 1270.82
  L 558.03 1274.96
  A 0.33 0.33 0.0 0 1 557.70 1275.29
  L 530.96 1275.29
  A 0.33 0.33 0.0 0 0 530.63 1275.62
  L 530.63 1294.65
  A 0.33 0.33 0.0 0 0 530.96 1294.98
  L 562.17 1294.98
  A 0.33 0.33 0.0 0 1 562.50 1295.31
  L 562.50 1299.55
  A 0.33 0.33 0.0 0 1 562.17 1299.88
  L 525.32 1299.88
  A 0.33 0.33 0.0 0 1 524.99 1299.55
  L 524.99 1247.09
  A 0.33 0.33 0.0 0 1 525.32 1246.76
  L 561.11 1246.76
  A 0.33 0.33 0.0 0 1 561.44 1247.09
  L 561.45 1251.30
  A 0.33 0.33 0.0 0 1 561.12 1251.63
  L 530.96 1251.63
  A 0.33 0.33 0.0 0 0 530.63 1251.96
  L 530.63 1270.16
  A 0.33 0.33 0.0 0 0 530.96 1270.49
  Z"
/>
<path fill="#ffffff" d="
  M 663.76 1288.88
  L 663.74 1247.09
  A 0.33 0.33 0.0 0 1 664.07 1246.76
  L 668.94 1246.76
  A 0.33 0.33 0.0 0 1 669.27 1247.09
  L 669.27 1299.58
  A 0.33 0.33 0.0 0 1 668.94 1299.91
  L 664.79 1299.86
  A 0.33 0.33 0.0 0 1 664.53 1299.74
  L 631.19 1257.60
  A 0.33 0.33 0.0 0 0 630.60 1257.81
  L 630.63 1299.54
  A 0.33 0.33 0.0 0 1 630.30 1299.87
  L 625.30 1299.88
  A 0.33 0.33 0.0 0 1 624.97 1299.55
  L 624.97 1247.08
  A 0.33 0.33 0.0 0 1 625.30 1246.75
  L 629.40 1246.77
  A 0.33 0.33 0.0 0 1 629.66 1246.89
  L 663.17 1289.09
  A 0.33 0.33 0.0 0 0 663.76 1288.88
  Z"
/>
<path fill="#ffffff" d="
  M 974.00 1247.04
  A 0.29 0.29 0.0 0 1 974.29 1246.75
  L 997.19 1246.79
  A 26.79 25.54 0.1 0 1 1023.93 1272.37
  L 1023.93 1274.35
  A 26.79 25.54 0.1 0 1 997.09 1299.85
  L 974.19 1299.81
  A 0.29 0.29 0.0 0 1 973.90 1299.52
  L 974.00 1247.04
  Z
  M 979.62 1251.93
  L 979.62 1294.71
  A 0.27 0.27 0.0 0 0 979.89 1294.98
  L 996.63 1294.98
  A 21.79 20.98 0.0 0 0 1018.42 1274.00
  L 1018.42 1272.64
  A 21.79 20.98 0.0 0 0 996.63 1251.66
  L 979.89 1251.66
  A 0.27 0.27 0.0 0 0 979.62 1251.93
  Z"
/>
<path fill="#ffffff" d="
  M 1091.47 1283.79
  L 1091.46 1299.66
  Q 1091.46 1299.90 1091.22 1299.90
  L 1086.09 1299.87
  Q 1085.75 1299.87 1085.75 1299.53
  L 1085.75 1247.30
  Q 1085.75 1246.77 1086.28 1246.76
  Q 1096.11 1246.72 1106.52 1246.81
  C 1117.50 1246.91 1127.04 1252.46 1127.31 1264.59
  C 1127.49 1272.48 1123.47 1278.78 1116.00 1281.32
  Q 1115.16 1281.60 1115.68 1282.32
  L 1128.04 1299.68
  A 0.11 0.11 0.0 0 1 1127.95 1299.86
  L 1122.26 1299.88
  A 0.50 0.48 71.6 0 1 1121.86 1299.67
  L 1110.31 1283.42
  Q 1109.99 1282.97 1109.43 1282.97
  L 1092.21 1283.04
  Q 1091.47 1283.04 1091.47 1283.79
  Z
  M 1091.51 1251.95
  L 1091.41 1277.87
  A 0.32 0.32 0.0 0 0 1091.73 1278.19
  L 1107.62 1278.24
  A 13.97 12.27 0.2 0 0 1121.64 1266.02
  L 1121.64 1264.00
  A 13.97 12.27 0.2 0 0 1107.72 1251.68
  L 1091.83 1251.63
  A 0.32 0.32 0.0 0 0 1091.51 1251.95
  Z"
/>
<rect fill="#ffffff" x="1189.75" y="1246.75" width="5.72" height="53.14" rx="0.38"/>
<path fill="#ffffff" d="
  M 1267.18 1299.89
  L 1262.29 1299.88
  A 0.34 0.34 0.0 0 1 1261.95 1299.54
  L 1261.96 1247.09
  A 0.34 0.34 0.0 0 1 1262.30 1246.75
  L 1266.40 1246.77
  A 0.34 0.34 0.0 0 1 1266.66 1246.90
  L 1300.13 1289.05
  A 0.34 0.34 0.0 0 0 1300.74 1288.83
  L 1300.72 1247.09
  A 0.34 0.34 0.0 0 1 1301.06 1246.75
  L 1305.92 1246.76
  A 0.34 0.34 0.0 0 1 1306.26 1247.10
  L 1306.26 1299.57
  A 0.34 0.34 0.0 0 1 1305.92 1299.91
  L 1301.79 1299.85
  A 0.34 0.34 0.0 0 1 1301.53 1299.72
  L 1268.11 1257.52
  A 0.34 0.34 0.0 0 0 1267.50 1257.73
  L 1267.52 1299.55
  A 0.34 0.34 0.0 0 1 1267.18 1299.89
  Z"
/>
<path fill="#ffffff" d="
  M 1379.02 1278.19
  L 1409.47 1246.86
  A 0.33 0.33 0.0 0 1 1409.71 1246.76
  L 1415.34 1246.72
  A 0.33 0.33 0.0 0 1 1415.58 1247.27
  L 1393.27 1270.61
  A 0.33 0.33 0.0 0 0 1393.25 1271.05
  L 1417.21 1299.38
  A 0.33 0.33 0.0 0 1 1416.96 1299.92
  L 1411.05 1299.86
  A 0.33 0.33 0.0 0 1 1410.80 1299.75
  L 1389.48 1275.20
  A 0.33 0.33 0.0 0 0 1389.00 1275.18
  L 1378.57 1285.74
  A 0.33 0.33 0.0 0 0 1378.47 1285.98
  L 1378.46 1299.57
  A 0.33 0.33 0.0 0 1 1378.13 1299.90
  L 1373.10 1299.87
  A 0.33 0.33 0.0 0 1 1372.77 1299.54
  L 1372.77 1247.08
  A 0.33 0.33 0.0 0 1 1373.10 1246.75
  L 1378.14 1246.77
  A 0.33 0.33 0.0 0 1 1378.47 1247.10
  L 1378.45 1277.96
  A 0.33 0.33 0.0 0 0 1379.02 1278.19
  Z"
/>
</svg>
